<?xml version="1.0" encoding="utf-8"?>
<!-- Generator: Adobe Illustrator 24.0.0, SVG Export Plug-In . SVG Version: 6.00 Build 0)  -->
<svg version="1.1" id="Layer_1" xmlns="http://www.w3.org/2000/svg" xmlns:xlink="http://www.w3.org/1999/xlink" x="0px" y="0px"
	 viewBox="0 0 166.7 100" style="enable-background:new 0 0 166.7 100;" xml:space="preserve">
<g>
	<g>
		<path d="M4.5,78.4V60.7c0-5.4,2.8-8.4,8-8.4c5.2,0,8,3.1,8,8.4v17.7c0,5.4-2.8,8.4-8,8.4C7.3,86.8,4.5,83.8,4.5,78.4z M15.2,78.7
			V60.4c0-2.4-1.1-3.3-2.7-3.3c-1.7,0-2.7,0.9-2.7,3.3v18.3c0,2.4,1.1,3.3,2.7,3.3C14.2,82,15.2,81.1,15.2,78.7z"/>
		<path d="M24,52.8h5.3v28.8H38v4.8H24V52.8z"/>
		<path d="M40.6,52.8h8.1c5.3,0,7.9,2.9,7.9,8.3v17c0,5.4-2.6,8.3-7.9,8.3h-8.1V52.8z M48.5,81.6c1.7,0,2.7-0.9,2.7-3.3V60.8
			c0-2.4-1-3.3-2.7-3.3h-2.7v24H48.5z"/>
		<path d="M67.7,52.8h7.8c5.3,0,7.9,2.9,7.9,8.3v3.3c0,5.4-2.6,8.3-7.9,8.3H73v13.7h-5.3V52.8z M75.5,67.9c1.7,0,2.6-0.8,2.6-3.2v-4
			c0-2.4-0.9-3.2-2.6-3.2H73v10.3H75.5z"/>
		<path d="M86.2,52.8h14.4v4.8h-9.1v8.9h7.2v4.8h-7.2v10.3h9.1v4.8H86.2V52.8z"/>
		<path d="M107.8,57.6h-5.5v-4.8h16.3v4.8h-5.5v28.8h-5.3V57.6z"/>
		<path d="M121.1,52.8h14.4v4.8h-9.1v8.9h7.2v4.8h-7.2v10.3h9.1v4.8h-14.4V52.8z"/>
		<path d="M140.3,57.8h-1.7v-5.1h5.1v4.6l-2.9,6.3h-2.4L140.3,57.8z"/>
		<path d="M146.7,78.4v-1.9h5v2.3c0,2.4,1.1,3.3,2.7,3.3c1.7,0,2.7-0.9,2.7-3.4c0-2.8-1.1-4.6-4.5-7.6c-4.4-3.9-5.9-6.6-5.9-10.5
			c0-5.3,2.7-8.4,7.9-8.4c5.1,0,7.7,3.1,7.7,8.4v1.4h-5v-1.7c0-2.4-1-3.3-2.6-3.3c-1.7,0-2.6,0.9-2.6,3.2c0,2.4,1.1,4.2,4.6,7.2
			c4.4,3.9,5.8,6.6,5.8,10.8c0,5.5-2.8,8.5-8,8.5S146.7,83.8,146.7,78.4z"/>
	</g>
	<g>
		<path d="M33.2,46.8c-0.4,0-0.7-0.1-1-0.2c-0.3-0.1-0.6-0.3-0.8-0.5s-0.4-0.5-0.5-0.8s-0.2-0.7-0.2-1c0-0.4,0.1-0.7,0.2-1
			c0.1-0.3,0.3-0.6,0.5-0.8c0.2-0.2,0.5-0.4,0.8-0.5c0.3-0.1,0.7-0.2,1-0.2s0.7,0.1,1,0.2c0.3,0.1,0.6,0.3,0.8,0.5
			c0.2,0.2,0.4,0.5,0.5,0.8c0.1,0.3,0.2,0.7,0.2,1c0,0.4-0.1,0.7-0.2,1s-0.3,0.6-0.5,0.8s-0.5,0.4-0.8,0.5
			C33.9,46.7,33.6,46.8,33.2,46.8z M33.2,46.3c0.3,0,0.6-0.1,0.8-0.2s0.4-0.3,0.6-0.4c0.2-0.2,0.3-0.4,0.4-0.7
			c0.1-0.2,0.1-0.5,0.1-0.8s0-0.6-0.1-0.8c-0.1-0.2-0.2-0.5-0.4-0.7c-0.2-0.2-0.4-0.3-0.6-0.4s-0.5-0.2-0.8-0.2s-0.6,0.1-0.8,0.2
			s-0.4,0.3-0.6,0.4c-0.2,0.2-0.3,0.4-0.4,0.7c-0.1,0.2-0.1,0.5-0.1,0.8s0,0.6,0.1,0.8c0.1,0.2,0.2,0.5,0.4,0.7
			c0.2,0.2,0.4,0.3,0.6,0.4S32.9,46.3,33.2,46.3z"/>
		<path d="M38.8,41.7h0.6v4.4h2.3v0.5h-2.9V41.7z"/>
		<path d="M44.3,41.7h1.9c0.2,0,0.3,0,0.5,0.1c0.2,0,0.4,0.1,0.5,0.2c0.2,0.1,0.4,0.2,0.5,0.3c0.2,0.1,0.3,0.3,0.4,0.5
			c0.1,0.2,0.2,0.4,0.3,0.6s0.1,0.5,0.1,0.8s0,0.6-0.1,0.8c-0.1,0.2-0.2,0.5-0.3,0.6c-0.1,0.2-0.3,0.3-0.4,0.5
			c-0.2,0.1-0.3,0.2-0.5,0.3s-0.4,0.1-0.5,0.2c-0.2,0-0.4,0.1-0.5,0.1h-1.9V41.7z M44.9,46.1H46c0.3,0,0.5,0,0.8-0.1
			c0.2-0.1,0.5-0.2,0.6-0.3s0.3-0.4,0.4-0.6c0.1-0.2,0.2-0.5,0.2-0.9c0-0.3-0.1-0.6-0.2-0.9c-0.1-0.2-0.2-0.4-0.4-0.6
			c-0.2-0.2-0.4-0.3-0.6-0.3s-0.5-0.1-0.8-0.1h-1.1V46.1z"/>
		<path d="M55.8,41.7h3.1v0.5h-2.5v1.6h2.3v0.5h-2.3v2.2h-0.6V41.7z"/>
		<path d="M63,41.7h0.6l2.1,5H65l-0.5-1.2H62l-0.5,1.2h-0.7L63,41.7z M63.2,42.5L63.2,42.5l-1,2.4h2L63.2,42.5z"/>
		<path d="M70.7,42.6c-0.1-0.2-0.2-0.3-0.4-0.3c-0.2-0.1-0.3-0.1-0.5-0.1c-0.1,0-0.3,0-0.4,0s-0.2,0.1-0.3,0.1
			c-0.1,0.1-0.2,0.2-0.2,0.3c-0.1,0.1-0.1,0.2-0.1,0.4c0,0.1,0,0.2,0.1,0.3c0,0.1,0.1,0.2,0.2,0.2c0.1,0.1,0.2,0.1,0.3,0.2
			c0.1,0.1,0.3,0.1,0.5,0.2c0.2,0.1,0.4,0.1,0.6,0.2c0.2,0.1,0.3,0.2,0.5,0.3s0.2,0.2,0.3,0.4c0.1,0.2,0.1,0.4,0.1,0.6
			c0,0.2,0,0.5-0.1,0.6c-0.1,0.2-0.2,0.3-0.4,0.5s-0.3,0.2-0.6,0.3c-0.2,0.1-0.4,0.1-0.7,0.1c-0.1,0-0.3,0-0.4,0
			c-0.1,0-0.3-0.1-0.4-0.1c-0.1-0.1-0.3-0.1-0.4-0.2c-0.1-0.1-0.2-0.2-0.3-0.3l0.5-0.4c0.1,0.2,0.3,0.3,0.4,0.4s0.4,0.1,0.6,0.1
			c0.1,0,0.3,0,0.4-0.1c0.1,0,0.2-0.1,0.3-0.2c0.1-0.1,0.2-0.2,0.3-0.3c0.1-0.1,0.1-0.2,0.1-0.4c0-0.2,0-0.3-0.1-0.4
			c-0.1-0.1-0.1-0.2-0.2-0.2c-0.1-0.1-0.2-0.1-0.4-0.2c-0.2-0.1-0.4-0.1-0.6-0.2c-0.2-0.1-0.3-0.1-0.5-0.2s-0.3-0.2-0.4-0.3
			s-0.2-0.2-0.3-0.4s-0.1-0.3-0.1-0.5c0-0.2,0-0.4,0.1-0.6s0.2-0.3,0.4-0.4c0.2-0.1,0.3-0.2,0.5-0.3c0.2-0.1,0.4-0.1,0.6-0.1
			c0.3,0,0.5,0,0.8,0.1c0.2,0.1,0.4,0.2,0.6,0.5L70.7,42.6z"/>
		<path d="M74.4,41.7H75v2.1h2.6v-2.1h0.6v5h-0.6v-2.3H75v2.3h-0.6V41.7z"/>
		<path d="M81.5,41.7h0.6v5h-0.6V41.7z"/>
		<path d="M87.8,46.8c-0.4,0-0.7-0.1-1-0.2c-0.3-0.1-0.6-0.3-0.8-0.5s-0.4-0.5-0.5-0.8s-0.2-0.7-0.2-1c0-0.4,0.1-0.7,0.2-1
			c0.1-0.3,0.3-0.6,0.5-0.8c0.2-0.2,0.5-0.4,0.8-0.5c0.3-0.1,0.7-0.2,1-0.2s0.7,0.1,1,0.2c0.3,0.1,0.6,0.3,0.8,0.5
			c0.2,0.2,0.4,0.5,0.5,0.8c0.1,0.3,0.2,0.7,0.2,1c0,0.4-0.1,0.7-0.2,1s-0.3,0.6-0.5,0.8s-0.5,0.4-0.8,0.5
			C88.5,46.7,88.1,46.8,87.8,46.8z M87.8,46.3c0.3,0,0.6-0.1,0.8-0.2s0.4-0.3,0.6-0.4c0.2-0.2,0.3-0.4,0.4-0.7
			c0.1-0.2,0.1-0.5,0.1-0.8s0-0.6-0.1-0.8c-0.1-0.2-0.2-0.5-0.4-0.7c-0.2-0.2-0.4-0.3-0.6-0.4s-0.5-0.2-0.8-0.2s-0.6,0.1-0.8,0.2
			s-0.4,0.3-0.6,0.4c-0.2,0.2-0.3,0.4-0.4,0.7c-0.1,0.2-0.1,0.5-0.1,0.8s0,0.6,0.1,0.8c0.1,0.2,0.2,0.5,0.4,0.7
			c0.2,0.2,0.4,0.3,0.6,0.4S87.5,46.3,87.8,46.3z"/>
		<path d="M93.4,41.7h0.7l2.9,4.1h0v-4.1h0.6v5h-0.7L94,42.6h0v4.1h-0.6V41.7z"/>
		<path d="M100.9,41.7h3.1v0.5h-2.5v1.6h2.4v0.5h-2.4v1.8h2.7v0.5h-3.2V41.7z"/>
		<path d="M107.1,41.7h1.9c0.2,0,0.3,0,0.5,0.1c0.2,0,0.4,0.1,0.5,0.2c0.2,0.1,0.4,0.2,0.5,0.3c0.2,0.1,0.3,0.3,0.4,0.5
			c0.1,0.2,0.2,0.4,0.3,0.6c0.1,0.2,0.1,0.5,0.1,0.8s0,0.6-0.1,0.8c-0.1,0.2-0.2,0.5-0.3,0.6c-0.1,0.2-0.3,0.3-0.4,0.5
			c-0.2,0.1-0.3,0.2-0.5,0.3s-0.4,0.1-0.5,0.2c-0.2,0-0.4,0.1-0.5,0.1h-1.9V41.7z M107.7,46.1h1.1c0.3,0,0.5,0,0.8-0.1
			c0.2-0.1,0.5-0.2,0.6-0.3c0.2-0.2,0.3-0.4,0.4-0.6s0.2-0.5,0.2-0.9c0-0.3-0.1-0.6-0.2-0.9s-0.2-0.4-0.4-0.6
			c-0.2-0.2-0.4-0.3-0.6-0.3c-0.2-0.1-0.5-0.1-0.8-0.1h-1.1V46.1z"/>
		<path d="M118.5,41.7h1.5c0.2,0,0.4,0,0.6,0.1c0.2,0,0.4,0.1,0.5,0.2s0.3,0.2,0.4,0.4c0.1,0.2,0.1,0.3,0.1,0.6
			c0,0.3-0.1,0.5-0.2,0.7s-0.4,0.3-0.6,0.4v0c0.2,0,0.3,0.1,0.4,0.1s0.3,0.2,0.4,0.3c0.1,0.1,0.2,0.2,0.2,0.4
			c0.1,0.1,0.1,0.3,0.1,0.5c0,0.3-0.1,0.5-0.2,0.7s-0.3,0.3-0.4,0.4s-0.4,0.2-0.6,0.2c-0.2,0-0.5,0.1-0.7,0.1h-1.5V41.7z
			 M119.1,43.8h0.8c0.1,0,0.3,0,0.4,0c0.1,0,0.3-0.1,0.4-0.1c0.1-0.1,0.2-0.1,0.3-0.2s0.1-0.2,0.1-0.4c0-0.2,0-0.3-0.1-0.4
			c-0.1-0.1-0.1-0.2-0.2-0.2c-0.1-0.1-0.2-0.1-0.3-0.1c-0.1,0-0.3,0-0.4,0h-0.9V43.8z M119.1,46.1h1c0.1,0,0.3,0,0.4,0
			c0.1,0,0.3-0.1,0.4-0.1c0.1-0.1,0.2-0.2,0.3-0.3c0.1-0.1,0.1-0.2,0.1-0.4c0-0.2,0-0.3-0.1-0.4c-0.1-0.1-0.2-0.2-0.3-0.3
			c-0.1-0.1-0.2-0.1-0.4-0.1s-0.3,0-0.4,0h-1V46.1z"/>
		<path d="M125,41.7h1.5c0.2,0,0.4,0,0.6,0.1c0.2,0,0.4,0.1,0.5,0.2s0.3,0.2,0.4,0.4c0.1,0.2,0.1,0.3,0.1,0.6c0,0.3-0.1,0.5-0.2,0.7
			s-0.4,0.3-0.6,0.4v0c0.2,0,0.3,0.1,0.4,0.1s0.3,0.2,0.4,0.3c0.1,0.1,0.2,0.2,0.2,0.4c0.1,0.1,0.1,0.3,0.1,0.5
			c0,0.3-0.1,0.5-0.2,0.7s-0.3,0.3-0.4,0.4s-0.4,0.2-0.6,0.2c-0.2,0-0.5,0.1-0.7,0.1H125V41.7z M125.6,43.8h0.8c0.1,0,0.3,0,0.4,0
			c0.1,0,0.3-0.1,0.4-0.1c0.1-0.1,0.2-0.1,0.3-0.2s0.1-0.2,0.1-0.4c0-0.2,0-0.3-0.1-0.4c-0.1-0.1-0.1-0.2-0.2-0.2
			c-0.1-0.1-0.2-0.1-0.3-0.1c-0.1,0-0.3,0-0.4,0h-0.9V43.8z M125.6,46.1h1c0.1,0,0.3,0,0.4,0c0.1,0,0.3-0.1,0.4-0.1
			c0.1-0.1,0.2-0.2,0.3-0.3c0.1-0.1,0.1-0.2,0.1-0.4c0-0.2,0-0.3-0.1-0.4c-0.1-0.1-0.2-0.2-0.3-0.3c-0.1-0.1-0.2-0.1-0.4-0.1
			s-0.3,0-0.4,0h-1V46.1z"/>
		<path d="M136.7,46.7h-2.9c-0.4,0-0.7-0.1-1-0.2c-0.3-0.1-0.6-0.3-0.8-0.5s-0.4-0.5-0.5-0.8c-0.1-0.3-0.2-0.6-0.2-1s0.1-0.7,0.2-1
			c0.1-0.3,0.3-0.6,0.5-0.8c0.2-0.2,0.5-0.4,0.8-0.5c0.3-0.1,0.6-0.2,1-0.2s0.7,0.1,1,0.2c0.3,0.1,0.6,0.3,0.8,0.5
			c0.2,0.2,0.4,0.5,0.5,0.8c0.1,0.3,0.2,0.6,0.2,1c0,0.2,0,0.4-0.1,0.6c-0.1,0.2-0.1,0.4-0.2,0.6c-0.1,0.2-0.2,0.3-0.4,0.5
			c-0.1,0.1-0.3,0.3-0.5,0.3v0h1.5V46.7z M131.9,44.1c0,0.3,0,0.5,0.1,0.8c0.1,0.2,0.2,0.5,0.4,0.6c0.2,0.2,0.4,0.3,0.6,0.4
			c0.2,0.1,0.5,0.2,0.8,0.2c0.3,0,0.5-0.1,0.8-0.2c0.2-0.1,0.4-0.2,0.6-0.4c0.2-0.2,0.3-0.4,0.4-0.6c0.1-0.2,0.1-0.5,0.1-0.8
			c0-0.3,0-0.5-0.1-0.8s-0.2-0.5-0.4-0.6c-0.2-0.2-0.4-0.3-0.6-0.4c-0.2-0.1-0.5-0.2-0.8-0.2s-0.5,0.1-0.8,0.2
			c-0.2,0.1-0.4,0.2-0.6,0.4c-0.2,0.2-0.3,0.4-0.4,0.6S131.9,43.9,131.9,44.1z"/>
	</g>
	<g>
		<polygon points="26.1,41 26.9,43.4 29.4,43.4 27.4,44.9 28.1,47.3 26.1,45.8 24,47.3 24.8,44.9 22.8,43.4 25.3,43.4 		"/>
		<polygon points="140.3,41 141,43.4 143.6,43.4 141.5,44.9 142.3,47.3 140.3,45.8 138.2,47.3 139,44.9 136.9,43.4 139.5,43.4 		"/>
	</g>
	<path d="M134.3,34.7H96.4c0-0.2,0-0.4-0.1-0.6c-0.5-1.1-1.6-2.3-3.6-2c-0.2,0-0.3,0-0.4,0.1c-0.1-0.1-0.1-0.3-0.3-0.5
		c-0.6-1.1-1-2.5-0.9-3.8c0.1-1.2,0.7-1,0.5-2.5c-0.2-1.5-0.3-2.3,0.5-2.5c0.8-0.1,2-1.6,2.3-2.9c0.3-1.2,0.9-4.5,1.4-5.2
		c0.5-0.7,0.1-1,0.8-2.2c0.7-1.2,0.9-2.7,3.7-3.4c2.8-0.7,3.1-0.3,3.4-0.8c0.4-0.5,0.8-0.3,0.8-1.2c0-0.8,0.2-0.9-0.9-1.2
		c-1.1-0.3-1.6-1-2.5-1.2c-0.8-0.3-0.7-0.9-1.4-1.4c-0.7-0.5-0.7-0.2-1.2-0.4c-0.5-0.3-0.9-1-1.4-0.9c-0.5,0.1-0.9,0.5-0.9,1
		c-0.1,0.5-1.6,2.2-2.6,2.6c-1,0.4-3,1.7-4.3,1.8c-1.2,0.1-6.4,0.2-9.5,0.9c-3,0.7-6.6-0.3-8.5,0.4c-1.9,0.6-4.7-0.6-7,0.7
		c-2.3,1.4-2,3.8-2,4.4c0,0.6,0.6,6,0,7.5c-0.6,1.5-0.2,5.5,0.5,4.9c0,0,0.5,4.9,0.1,6.3c-0.4,1.4,0.5,0.3,0.7,1.1
		c0.1,0.3,0.1,0.7,0.2,0.9H32.1c-0.2,0-0.4,0.2-0.4,0.4c0,0.2,0.2,0.4,0.4,0.4h50.4h12.9h38.9c0.2,0,0.4-0.2,0.4-0.4
		C134.7,34.9,134.5,34.7,134.3,34.7z M89.2,26.2c0,0,0.6,0.7,0.6,1.4c0,0.7-0.3,3.3,0.2,3.7c0.4,0.5,0.5-0.2,0.6,0.6
		c0,0.1,0,0.1,0,0.2c-0.3,0-0.6-0.1-0.9-0.1c-0.1-0.2-0.2-0.4-0.4-0.6c-0.6-0.8-0.4-1.7-0.6-2.9C88.4,27.4,89,27,89.2,26.2z
		 M69.9,25.1l0.3,0c0,0,0.1-0.2,0.4-0.2c0.3,0.1,0.1,1,0.5,0.9c0.4-0.2,0.2-1.1,0.7-1.3c0.5-0.2,1.8-0.4,2.2-1.2c0,0,0.5,0.3,0.7,0
		c0,0,1.3,0.3,2.2,0.8c0.9,0.5,1.1-0.1,1.6-0.4c0.5-0.3,3.4-0.9,4.4-0.9c0.9,0,1.4-0.8,2.6-0.9c1.2-0.2,1.7,0.2,1.7,1
		c0,0.8,0.1,1.7,0,2.1c-0.1,0.4,0.4,1.7,0.3,2.4c-0.1,0.7,0,2.5-0.4,3c-0.4,0.5,0.4,0.3,0.4,0.6c0,0.2-0.1,0.4-0.1,0.7
		c-0.6,0-1.3,0-2.1,0.4c-1.3,0.5-2.5,1.4-3.4,2.1c-0.2,0.2-0.3,0.4-0.3,0.6h-9.4c-0.4-0.3-0.7-0.1-0.9-0.5c-0.2-0.6-0.4-0.4-0.6-1
		C70.5,32.5,67.9,29.3,69.9,25.1z M63.7,21.3c-0.1,0.8,0.2,1.4-0.5,2.5c0,0-0.4-2.3-0.2-3.4c0.2-1.1,0.2-2.6,0.2-2.6
		S63.8,20.5,63.7,21.3z M65.5,34.6c-0.8-0.9-1.3-2.3-1-4.2c0.2-1.9,0.5-2.4,0.9-3.5c0.4-1.1,0.7-1.7,1-2.1c0.4-0.4-0.7,1.8-0.4,2
		c0.3,0.3,1.7,3.3,1.8,3.8c0.1,0.5,1,2,1,2.9c0,0.9,0.5,0.7,0.9,1c0.1,0,0.1,0.1,0.1,0.2h-4.3C65.6,34.6,65.5,34.6,65.5,34.6z"/>
	<path d="M118.7,97.4H47.6c-0.2,0-0.4,0.2-0.4,0.4c0,0.2,0.2,0.4,0.4,0.4h71.1c0.2,0,0.4-0.2,0.4-0.4
		C119.2,97.6,119,97.4,118.7,97.4z"/>
</g>
<g>
	<g>
		<path d="M67.1,95.1c-0.3,0.2-0.5,0.2-0.6,0.2c-0.1,0-0.7,0-0.9-0.6c-0.1-0.2-0.1-0.3-0.1-0.5v-0.5h0.5V94c0,0.3,0,0.4,0,0.5
			c0,0.1,0.2,0.3,0.5,0.3c0.2,0,0.4-0.1,0.5-0.3c0-0.1,0-0.2,0-0.2c0-0.4-0.2-0.5-0.4-0.7L66,93c-0.3-0.3-0.5-0.6-0.5-1
			c0-0.1,0-0.2,0-0.4c0.1-0.3,0.3-0.6,0.9-0.6c0.1,0,0.7,0,0.8,0.5c0,0.1,0,0.3,0,0.5v0.3h-0.5c0-0.3,0-0.2,0-0.3
			c0-0.2,0-0.4-0.2-0.5c-0.1,0-0.2,0-0.2,0c-0.1,0-0.2,0-0.3,0.1c0,0-0.1,0.1-0.1,0.1c0,0.1,0,0.1,0,0.3c0,0,0,0.1,0,0.2
			c0.1,0.2,0.2,0.4,0.4,0.5l0.6,0.7c0,0.1,0.1,0.1,0.1,0.2c0.1,0.1,0.2,0.3,0.2,0.7C67.5,94.8,67.3,95,67.1,95.1z"/>
		<path d="M69.7,95.2v-4.1h0.5v4.1H69.7z"/>
		<path d="M73.8,95.2l-0.8-3.6l0.1,3.6h-0.5v-4.1h0.7l0.8,3.6L74,91.1h0.5v4.1H73.8z"/>
		<path d="M78.7,94.2c0,0,0,0.2,0,0.4c-0.1,0.4-0.3,0.6-0.5,0.6c-0.2,0.1-0.4,0.1-0.5,0.1c-0.2,0-0.4,0-0.6-0.2c0,0-0.1-0.1-0.2-0.2
			c-0.2-0.2-0.2-0.5-0.2-1.1v-0.7c0-0.2,0-0.5,0-0.7c0-0.3,0-0.8,0.2-1c0.2-0.2,0.5-0.3,0.8-0.3c0.4,0,0.6,0.2,0.7,0.3
			c0.2,0.2,0.2,0.4,0.2,0.8c0,0.1,0,0.2,0,0.3h-0.5c0-0.1,0-0.3,0-0.5c0-0.2,0-0.3-0.2-0.4c0,0-0.1-0.1-0.3-0.1
			c-0.1,0-0.4,0-0.5,0.4c-0.1,0.2-0.1,0.7-0.1,1.4c0,0.3,0,0.6,0,0.9c0,0.2,0,0.4,0.1,0.5c0.1,0.2,0.4,0.2,0.4,0.2
			c0,0,0.2,0,0.3-0.1c0.2-0.1,0.2-0.5,0.2-0.7v-0.3h0.5C78.7,93.9,78.7,94.1,78.7,94.2z"/>
		<path d="M81,95.2v-4.1h1.8v0.5h-1.3v1.2h1.1v0.5h-1.1v1.5h1.3v0.5H81z"/>
		<path d="M87.9,95.2v-0.5l0.9-1.4c0.1-0.1,0.1-0.2,0.2-0.3c0.2-0.3,0.2-0.5,0.2-0.9c0,0,0-0.1,0-0.2c-0.1-0.3-0.2-0.3-0.4-0.3
			c-0.1,0-0.2,0.1-0.2,0.1c-0.1,0.1-0.1,0.3-0.1,0.5v0.5H88v-0.5c0-0.1,0-0.1,0-0.2c0-0.1,0-0.5,0.3-0.7c0.1-0.1,0.3-0.1,0.5-0.1
			c0.5,0,0.7,0.4,0.8,0.6c0,0.1,0.1,0.3,0.1,0.5c0,0.2,0,0.5-0.2,0.9c-0.1,0.1-0.1,0.3-0.2,0.4l-0.8,1.4h1.3v0.4H87.9z"/>
		<path d="M93.7,93.9v0.4c0,0.3,0,0.6-0.3,0.9c-0.1,0.1-0.3,0.2-0.6,0.2c-0.1,0-0.3,0-0.6-0.1c-0.4-0.2-0.4-0.6-0.4-1.4
			c0-0.3,0-0.6,0-0.9c0-0.2,0-0.3,0-0.5c0-0.1,0-0.3,0-0.4c0-0.3,0.1-0.6,0.4-0.8c0.2-0.1,0.4-0.1,0.5-0.1c0.1,0,0.3,0,0.5,0.1
			c0.4,0.2,0.4,0.6,0.4,1c0,0.3,0,0.6,0,0.9C93.7,93.4,93.7,93.7,93.7,93.9z M93.2,92.2c0-0.3,0-0.4-0.1-0.6c0-0.1-0.1-0.2-0.3-0.2
			c-0.3,0-0.4,0.2-0.4,0.3c0,0.1,0,0.5,0,1c0,0.4,0,0.7,0,1.1c0,0.2,0,0.4,0,0.5c0,0.1,0,0.2,0.1,0.3c0.1,0.1,0.2,0.1,0.3,0.1
			c0.2,0,0.3-0.1,0.4-0.2c0.1-0.1,0-0.5,0-0.7V92.2z"/>
		<path d="M95.8,95.2v-0.5l0.9-1.4c0.1-0.1,0.1-0.2,0.2-0.3c0.2-0.3,0.2-0.5,0.2-0.9c0,0,0-0.1,0-0.2c-0.1-0.3-0.2-0.3-0.4-0.3
			c-0.1,0-0.2,0.1-0.2,0.1c-0.1,0.1-0.1,0.3-0.1,0.5v0.5h-0.5v-0.5c0-0.1,0-0.1,0-0.2c0-0.1,0-0.5,0.3-0.7c0.1-0.1,0.3-0.1,0.5-0.1
			c0.5,0,0.7,0.4,0.8,0.6c0,0.1,0.1,0.3,0.1,0.5c0,0.2,0,0.5-0.2,0.9c-0.1,0.1-0.1,0.3-0.2,0.4l-0.8,1.4h1.3v0.4H95.8z"/>
		<path d="M101.5,94.7c-0.1,0.2-0.3,0.6-0.9,0.6c-0.1,0-0.4,0-0.6-0.2c-0.2-0.1-0.3-0.3-0.3-0.7c0-0.1,0-0.2,0-0.3l0.5,0
			c0,0.1,0,0.3,0,0.4c0,0.2,0,0.3,0.2,0.4c0,0,0.1,0.1,0.2,0.1c0,0,0.2,0,0.3-0.1c0.2-0.1,0.2-0.4,0.2-0.6c0-0.1,0-0.2,0-0.3
			c0,0,0-0.3-0.1-0.4c-0.1-0.1-0.3-0.2-0.4-0.2c-0.1,0-0.1,0-0.2,0l0-0.5c0,0,0.4,0,0.5-0.1c0.1-0.1,0.1-0.3,0.1-0.5
			c0-0.1,0-0.3,0-0.4c0-0.1,0-0.4-0.4-0.4c0,0-0.1,0-0.2,0.1c-0.1,0.1-0.1,0.3-0.1,0.5c0,0.1,0,0.1,0,0.2h-0.5c0-0.1,0-0.2,0-0.3
			c0-0.4,0.1-0.7,0.5-0.8c0.1,0,0.2-0.1,0.4-0.1c0.3,0,0.4,0.1,0.5,0.1c0.2,0.2,0.4,0.4,0.4,1c0,0.4,0,0.6-0.2,0.8
			c-0.1,0.1-0.2,0.1-0.3,0.1c0.1,0,0.4,0.1,0.5,0.4c0.1,0.2,0.1,0.6,0.1,0.8C101.6,94.3,101.6,94.5,101.5,94.7z"/>
	</g>
	<g>
		<path d="M145.3,94.9H139c-0.6,0-1.1-0.5-1.1-1.1v-1c0-0.6,0.5-1.1,1.1-1.1h6.3c0.2,0,0.4-0.2,0.4-0.4c0-0.2-0.2-0.4-0.4-0.4h-7
			c-0.9,0-1.7,0.7-1.7,1.7v0h-33.2v1.3h33.2v0c0,0.9,0.7,1.7,1.7,1.7h7c0.2,0,0.4-0.2,0.4-0.4C145.7,95,145.5,94.9,145.3,94.9z"/>
		<path d="M63.2,92.6H30.6l-1.3-2.3c-0.3-0.5-0.8-0.8-1.3-0.8h-5.8c-0.4,0-0.8,0.3-0.8,0.8v5.9c0,0.4,0.3,0.8,0.8,0.8h5.8
			c0.5,0,1.1-0.3,1.3-0.8l1.3-2.3h32.6V92.6z M27.3,96.3h-4.6c-0.2,0-0.4-0.2-0.4-0.4c0-0.2,0.2-0.4,0.4-0.4h4.6
			c0.2,0,0.4,0.2,0.4,0.4C27.6,96.1,27.5,96.3,27.3,96.3z M27.3,94.5h-4.6c-0.2,0-0.4-0.2-0.4-0.4c0-0.2,0.2-0.4,0.4-0.4h4.6
			c0.2,0,0.4,0.2,0.4,0.4C27.6,94.4,27.5,94.5,27.3,94.5z M27.3,92.8h-4.6c-0.2,0-0.4-0.2-0.4-0.4c0-0.2,0.2-0.4,0.4-0.4h4.6
			c0.2,0,0.4,0.2,0.4,0.4C27.6,92.6,27.5,92.8,27.3,92.8z M27.3,91h-4.6c-0.2,0-0.4-0.2-0.4-0.4c0-0.2,0.2-0.4,0.4-0.4h4.6
			c0.2,0,0.4,0.2,0.4,0.4C27.6,90.8,27.5,91,27.3,91z"/>
	</g>
</g>
</svg>
